<svg width="836" height="906" viewBox="0 0 836 906" fill="none" xmlns="http://www.w3.org/2000/svg">
<path d="M602.9 831.099C584.8 840.399 560.8 838.499 560.8 838.499C568.1 838.499 574.8 835.799 580.7 830.999C599.6 815.599 610.7 778.199 607 734.499C602.7 684.399 580.4 642.599 554.6 632.799C550.9 631.299 547 630.599 543.2 630.599C538.9 630.599 534.9 631.499 531 633.199C531.9 632.599 548.2 622.399 576.5 625.299C577.567 625.432 578.633 625.566 579.7 625.699C608.1 630.599 633.7 675.099 638.3 729.199C642.6 779.599 627.2 821.599 602.9 831.099Z" fill="#1C222B"/>
<path d="M580.7 830.999C574.8 835.799 568.1 838.499 560.8 838.499C530.5 838.499 501.9 791.899 497 734.499C492.8 685.199 507.5 643.899 531 633.199C534.9 631.499 538.9 630.599 543.2 630.599C547 630.599 550.9 631.299 554.6 632.799C580.4 642.599 602.7 684.399 607 734.499C610.7 778.199 599.6 815.599 580.7 830.999Z" fill="#3E4A5A"/>
<path d="M594.501 734.899C597.801 776.499 583.701 810.299 563.101 810.299C542.401 810.299 523 776.499 519.7 734.899C516.4 693.199 530.401 659.399 551.101 659.399C571.701 659.399 591.201 693.199 594.501 734.899Z" fill="#687589"/>
<path d="M569.6 734.899C570.7 748.899 566 760.199 559.1 760.199C552.2 760.199 545.699 748.899 544.499 734.899C543.399 720.899 548.1 709.599 555.1 709.599C562 709.599 568.5 720.899 569.6 734.899Z" fill="#3E4A5A"/>
<path d="M594.9 734.899L569.6 738.399L411 208.999C397.7 164.699 376.9 123.499 349.2 86.4994L342.9 77.9994C323.2 51.6994 293.1 35.8994 260.2 34.5994L34.2 25.7994C30.1 25.6994 28.0001 28.3994 27.3001 29.5994C26.6001 30.7994 25.2 33.7994 27.2 37.2994L76.3001 112.599C90.0001 133.599 100.3 156.499 106.9 180.699L288.4 842.199L268.8 852.599C268.3 852.899 268.2 853.399 268.4 853.799L269.1 858.099C267.1 856.499 265.5 854.299 264.8 851.599L82.6001 187.399C76.6001 165.699 67.4001 145.199 55.1001 126.399L5.80014 50.7994C5.73347 50.5994 5.63342 50.4328 5.50009 50.2994C-0.599912 39.8994 -0.599936 26.9994 5.60006 16.6994C11.8001 6.29944 23.1 0.0994052 35.2 0.599405L261.2 9.39945C301.7 10.9995 338.8 30.4995 363.1 62.8995L369.4 71.3995C398.9 110.699 421 154.599 435.2 201.699L594.9 734.899Z" fill="#D44851"/>
<path d="M594.901 734.9L569.601 738.4L411.001 209C397.701 164.7 376.901 123.5 349.201 86.4996L342.901 77.9996C323.201 51.6996 293.101 35.8996 260.201 34.5996L34.2007 25.7996C33.6007 25.7996 33.0674 25.8329 32.6008 25.8996C31.2008 22.7996 32.5008 20.0996 33.1008 19.0996C33.8008 17.8996 35.9008 15.1996 40.0008 15.2996L266.001 24.0996C298.901 25.3996 329.001 41.1996 348.701 67.4996L355.001 75.9996C382.701 113 403.501 154.2 416.801 198.5L575.401 727.9L592.101 725.5L594.901 734.9Z" fill="#AF333D"/>
<path d="M141.301 305.899L442.201 283.199L449.001 305.899L148.701 333.099L141.301 305.899Z" fill="#D44851"/>
<path d="M148.701 333.099L150.201 338.599L450.001 309.199L449.001 305.899L148.701 333.099Z" fill="#AF333D"/>
<path d="M250.501 704.1L552.802 652.6L551.501 648.3L248.602 697.3L250.501 704.1Z" fill="#AF333D"/>
<path d="M240.301 666.999L544.401 624.399L551.501 648.299L248.601 697.299L240.301 666.999Z" fill="#D44851"/>
<path d="M276.2 866.2C275.2 866.2 274.3 866 273.3 865.5L176.2 819.1C173 817.6 171.5 813.8 172.9 810.5L221.9 692.8C223.3 689.4 227.3 687.7 230.7 689.2C234.2 690.6 235.8 694.6 234.4 698L187.8 809.8L279.1 853.4C282.5 855 283.9 859 282.3 862.3C281.1 864.8 278.7 866.2 276.2 866.2Z" fill="#D44851"/>
<path d="M184.999 897.8C166.999 907.1 142.999 905.1 142.999 905.1C150.199 905.1 156.899 902.5 162.899 897.7C181.699 882.3 192.799 844.9 189.099 801.2C184.899 751.1 162.599 709.3 136.799 699.4C132.999 698 129.199 697.3 125.299 697.3C121.099 697.3 116.999 698.2 113.199 699.9C113.999 699.3 130.299 689 158.599 692C159.666 692.133 160.733 692.266 161.799 692.4C190.199 697.3 215.799 741.8 220.399 795.9C224.699 846.3 209.299 888.3 184.999 897.8Z" fill="#1C222B"/>
<path d="M162.899 897.7C156.899 902.5 150.199 905.1 142.999 905.1C112.599 905.1 84.099 858.6 79.199 801.2C74.999 751.9 89.6991 710.6 113.099 699.9C113.099 699.9 113.132 699.9 113.199 699.9C116.999 698.2 121.099 697.3 125.299 697.3C129.199 697.3 132.999 698 136.799 699.4C162.599 709.3 184.899 751.1 189.099 801.2C192.799 844.9 181.699 882.3 162.899 897.7Z" fill="#3E4A5A"/>
<path d="M176.599 801.6C179.899 843.2 165.899 877 145.199 877C124.599 877 105.199 843.2 101.799 801.6C98.4994 759.9 112.599 726.1 133.199 726.1C153.899 726.1 173.299 759.9 176.599 801.6Z" fill="#687589"/>
<path d="M151.799 801.599C152.899 815.499 148.199 826.899 141.199 826.899C134.299 826.899 127.799 815.499 126.699 801.599C125.599 787.599 130.299 776.199 137.199 776.199C144.099 776.199 150.699 787.599 151.799 801.599Z" fill="#AF333D"/>
<path d="M113.1 699.899C113.1 699.899 113.133 699.899 113.2 699.899" stroke="#1C222B" stroke-width="0.8" stroke-miterlimit="10"/>
<path d="M249.1 643.599L302.8 834.599L544.399 719.399L475.699 498.599L249.1 643.599Z" fill="#F8B36F"/>
<path d="M767.599 478.499L475.699 498.599L544.399 719.399L835.099 678.599L767.599 478.499Z" fill="#FEC47C"/>
<path d="M835.099 678.599L607.699 804.799L302.799 834.599L544.399 719.399L835.099 678.599Z" fill="#B97B3E"/>
<path d="M328.898 592.599L336.099 623.499L340.099 611.099L346.599 617.699L350.999 602.999L362.499 611.099V594.199L372.698 598.599L365.999 568.799L328.898 592.599Z" fill="#FEC47B"/>
<path d="M761.099 497.299C761.299 498.699 760.899 499.899 760.099 500.899C759.299 501.899 758.099 502.599 756.799 502.799L662.699 513.499C659.999 513.799 657.599 511.899 657.199 509.199C657.099 507.799 657.499 506.499 658.299 505.599C659.099 504.599 660.199 503.899 661.599 503.699L755.699 492.999C758.399 492.599 760.799 494.599 761.099 497.299Z" fill="#EEAA6B"/>
<path d="M762.898 512.699C762.998 514.099 762.598 515.399 761.898 516.399C761.098 517.299 759.898 517.999 758.598 518.199L708.498 523.899C705.798 524.199 703.398 522.299 703.098 519.599C702.898 518.199 703.298 516.899 704.098 515.899C704.898 514.999 705.998 514.299 707.398 514.099L757.398 508.399C760.098 508.099 762.598 509.999 762.898 512.699Z" fill="#EEAA6B"/>
<path d="M194.3 435.099L146.9 255.699L329.4 88.3994L387.6 289.999L194.3 435.099Z" fill="#F8B36F"/>
<path d="M641.301 88.3994H329.4L387.601 289.999L702.2 274.099L641.301 88.3994Z" fill="#FEC47C"/>
<path d="M194.301 435.1L680.901 292L702.201 274.1L387.601 290L194.301 435.1Z" fill="#B97B3E"/>
<path d="M211.301 196.599L217.101 221.399L221.201 208.999L227.701 215.599L232.001 200.899L243.501 208.999V192.099L253.801 196.499L245.001 165.699L211.301 196.599Z" fill="#FEC47B"/>
<path d="M630.9 103.899C630.9 105.299 630.3 106.499 629.5 107.399C628.6 108.299 627.3 108.799 626 108.799H531.301C528.601 108.799 526.4 106.599 526.4 103.899C526.4 102.499 526.901 101.299 527.801 100.399C528.701 99.499 529.901 98.999 531.301 98.999H626C628.7 98.999 630.9 101.199 630.9 103.899Z" fill="#EEAA6B"/>
<path d="M630.901 119.399C630.901 120.799 630.301 121.999 629.501 122.899C628.601 123.799 627.301 124.399 626.001 124.399H575.601C572.901 124.399 570.701 122.199 570.701 119.399C570.701 118.099 571.201 116.799 572.101 115.899C573.001 115.099 574.201 114.499 575.601 114.499H626.001C628.701 114.499 630.901 116.699 630.901 119.399Z" fill="#EEAA6B"/>
<path d="M232 636.7L262.1 635.3L475.7 498.6L755.3 479.3L479.2 493.5L232 636.7Z" fill="#B97B3E"/>
<path d="M696.899 292.4L417.1 285.3L479.199 493.5L755.3 479.3L696.899 292.4Z" fill="#FEC47C"/>
<path d="M179.5 445.1L417.1 285.3L479.2 493.5L232 636.7L179.5 445.1Z" fill="#F8B36F"/>
<path d="M266.9 386.3L274.101 417.2L278.101 404.8L284.601 411.4L289 396.7L300.5 404.8V387.9L310.7 392.3L303.801 361.5L266.9 386.3Z" fill="#FEC47B"/>
<path d="M800.198 722.499L615.898 811.999C614.698 812.599 613.432 812.999 612.099 813.199L271.499 867.199C270.999 867.299 270.599 866.999 270.499 866.599L270.398 866.199C270.498 865.899 270.598 865.599 270.898 865.399L301.499 849.299L443.499 773.999C451.699 769.699 460.599 766.799 469.799 765.499L769.499 723.599L799.299 719.399C799.999 719.299 800.598 719.699 800.898 720.199C801.298 720.899 801.198 721.999 800.198 722.499Z" fill="#AF333D"/>
<path d="M800.899 720.2C800.599 719.7 799.999 719.3 799.299 719.4L769.499 723.6L598.599 747.5L573.299 751L469.799 765.5C460.599 766.8 451.699 769.7 443.499 774L301.499 849.3L285.099 857.9L280.399 860.4L270.899 865.4C270.599 865.6 270.499 865.9 270.399 866.2L269.099 858.1L268.399 853.8C268.199 853.4 268.299 852.9 268.799 852.6L288.399 842.2L441.399 761.2C449.599 756.8 458.499 753.9 467.699 752.7L569.599 738.4L594.899 734.9L797.199 706.6C798.099 706.4 798.699 707 798.899 707.7L798.999 708.3L800.899 720.2Z" fill="#D44851"/>
</svg>
