<svg width="967" height="566" viewBox="0 0 967 566" fill="none" xmlns="http://www.w3.org/2000/svg">
<path d="M459.245 156.998H420.089V499.19L438.816 508.038L459.245 503.403V156.998Z" fill="#C28F60"/>
<path d="M441.533 0.409582L846.035 82.5694C845.013 82.3587 845.354 84.9569 844.219 84.9569C839.792 84.9569 837.409 84.676 835.026 86.7827L831.167 87.9765L795.075 91.0662L434.383 161.288L433.702 161.429L53.9431 86.7827L35.3297 84.9569C33.7408 84.6058 30.1089 82.2885 28.1795 82.2885L432.567 0.550024C435.405 -0.0819742 438.469 -0.222416 441.533 0.409582Z" fill="#AA7950"/>
<path d="M855.794 90.5612V413.934C855.794 417.585 851.935 420.675 846.487 421.658L442.1 507.54C441.494 507.68 440.889 507.797 440.284 507.891H440.057H439.943L439.83 507.961H439.716C439.413 507.961 439.111 507.984 438.808 508.031L434.382 161.275C478.191 152.778 832.414 80.379 846.033 82.5559C847.622 82.7666 848.984 83.1879 850.346 83.7497C851.935 84.5221 853.297 85.435 854.205 86.5586C854.583 86.9799 854.886 87.4012 855.113 87.8226C855.34 88.2439 855.529 88.6652 855.68 89.0866C855.756 89.5079 855.794 89.9292 855.794 90.3505V90.5612Z" fill="#C28F60"/>
<path d="M434.612 180.603L438.812 508.049C438.358 508.049 434.158 507.206 433.364 506.995L28.9759 421.184C23.6416 420.201 19.6693 417.041 19.6693 413.389V92.8959V89.8763C19.6693 88.1208 20.5773 86.5759 21.9392 85.2417C24.3226 83.135 28.295 81.8008 32.7214 81.8008C34.5373 81.8008 36.2397 82.0114 37.7152 82.3626C261.984 127.164 250.521 124.847 433.704 161.433L434.385 161.292L434.612 180.603Z" fill="#D2A06D"/>
<path d="M802.645 362.597C801.283 362.824 799.921 363.392 798.446 364.186V388.815C797.878 389.269 797.424 389.95 797.311 390.631C797.084 391.198 797.197 391.766 797.538 392.106C797.386 392.333 797.311 392.522 797.311 392.674C797.084 393.355 797.197 393.922 797.538 394.263C797.386 394.414 797.311 394.603 797.311 394.83C797.084 395.398 797.197 395.965 797.538 396.306C797.386 396.533 797.311 396.76 797.311 396.987C797.084 397.554 797.197 398.122 797.538 398.462C797.386 398.689 797.311 398.878 797.311 399.03C797.084 399.711 797.197 400.165 797.538 400.619C797.386 400.77 797.311 400.959 797.311 401.186C796.97 402.434 797.651 403.342 798.786 403.229L801.283 402.888C802.418 402.775 803.553 401.754 803.894 400.505C804.007 399.938 804.007 399.37 803.667 399.03C803.742 398.803 803.818 398.613 803.894 398.462C804.007 397.781 804.007 397.214 803.667 396.873C803.742 396.722 803.818 396.533 803.894 396.306C804.007 395.738 804.007 395.171 803.667 394.83C803.742 394.603 803.818 394.376 803.894 394.149C804.007 393.582 804.007 393.014 803.667 392.674C803.742 392.522 803.818 392.333 803.894 392.106C804.007 391.425 804.007 390.971 803.667 390.517C803.742 390.366 803.818 390.177 803.894 389.95C804.121 388.815 803.667 388.02 802.645 387.907V362.597ZM802.645 338.763V335.585C802.645 334.45 801.737 333.883 800.602 334.223C799.467 334.677 798.446 335.926 798.446 337.174V340.238H798.559C799.921 339.671 801.283 339.217 802.645 338.763Z" fill="#654730"/>
<path d="M821.473 341.499C826.013 344.223 829.078 348.99 830.099 355.118C826.24 352.395 819.317 354.21 814.55 358.864C812.961 360.453 811.713 362.155 810.805 363.858C808.875 361.134 804.676 360.68 800.59 362.155L800.477 362.269H800.363L800.023 362.382C800.136 362.382 800.136 362.382 800.023 362.382C799.947 362.382 799.871 362.42 799.796 362.496C797.526 363.404 795.483 364.879 793.667 366.582C792.305 368.057 791.056 369.759 790.262 371.348C788.332 368.625 784.133 368.171 780.047 369.646C776.642 370.894 773.237 373.391 771.081 376.683C772.102 369.646 775.28 362.609 779.82 356.48C791.397 341.045 809.897 334.349 821.473 341.499Z" fill="#654730"/>
<path d="M737.957 388.036V359.889L729.331 362.953L747.263 334.125L765.66 351.848L755.876 354.711L756.353 384.062L737.957 388.036Z" fill="#654730"/>
<path d="M691.777 399.669V371.522L683.152 374.586L701.197 345.645L720.328 363.543L711.502 366.407L712.218 394.803L691.777 399.669Z" fill="#654730"/>
<path d="M749.437 392.682V397.448L692.117 412.418V407.651L749.437 392.682Z" fill="#654730"/>
<path d="M136.78 376.261L41.191 351.431V389.907L136.78 414.736V376.261Z" fill="#654730"/>
<path d="M136.78 316.633L42.7015 295.582V334.057L136.78 354.995V316.633Z" fill="#654730"/>
<path d="M267.017 236.314H266.904L262.25 227.234L253.284 231.887L248.517 222.921L239.438 227.688L234.784 218.608L225.705 223.262L220.938 214.182L211.858 218.949L207.205 209.869L198.125 214.523L193.358 205.443L184.278 210.21L179.625 201.13L170.545 205.783L165.779 196.704L170.668 108.945L291.011 83.6692L557.579 24.0391L665.847 46.072L271.851 129.246L267.017 236.314Z" fill="#654730"/>
<path d="M0.776855 455.715L418.549 551.912M905.033 87.416V414.487M465.273 551.912L905.033 455.715" stroke="black" stroke-width="5.497"/>
<path d="M962.256 242.845V269.588H957.87V257.89H945.287V269.588H940.901V242.845H945.287V254.312H957.87V242.845H962.256Z" fill="black"/>
<path d="M739.353 523.193L731.427 549.936H726.463L720.845 529.696L714.881 549.936L709.956 549.974L702.375 523.193H707.031L712.572 544.972L718.575 523.193H723.5L729.08 544.856L734.659 523.193H739.353Z" fill="black"/>
<path d="M131.732 540.897H140.775V544.438H127.345V517.695H131.732V540.897Z" fill="black"/>
</svg>
