<svg width="332" height="327" viewBox="0 0 332 327" fill="none" xmlns="http://www.w3.org/2000/svg">
<path d="M157.458 100.771H173.006V320.377L165.57 326.056L157.458 323.081V100.771Z" fill="#C28F60"/>
<path d="M164.491 0.262854L3.87598 52.9899C4.28157 52.8547 4.14637 54.5221 4.59703 54.5221C6.3546 54.5221 7.30098 54.3419 8.24736 55.6938L9.7796 56.4599L24.1105 58.4428L167.33 103.509L167.6 103.599L318.39 55.6938L325.781 54.5221C326.412 54.2968 327.854 52.8096 328.62 52.8096L168.051 0.352985C166.924 -0.0526079 165.707 -0.142738 164.491 0.262854Z" fill="#AA7950"/>
<path d="M0 58.1313V265.659C0 268.003 1.53224 269.986 3.6954 270.617L164.265 325.732C164.505 325.822 164.746 325.897 164.986 325.958H165.076H165.121L165.166 326.003H165.211C165.332 326.003 165.452 326.018 165.572 326.048L167.329 103.513C149.934 98.0596 9.28356 51.5967 3.87566 52.9938C3.24474 53.129 2.70395 53.3993 2.16316 53.7599C1.53224 54.2556 0.991449 54.8415 0.630922 55.5625C0.480703 55.8329 0.360526 56.1033 0.270394 56.3737C0.180263 56.6441 0.105153 56.9145 0.0450652 57.1849C0.0150213 57.4553 0 57.7257 0 57.9961V58.1313Z" fill="#C28F60"/>
<path d="M21.2658 250.46C21.8066 250.55 22.3474 250.775 22.9333 251.091V260.87C23.1586 261.05 23.3389 261.321 23.3839 261.591C23.4741 261.816 23.429 262.042 23.2938 262.177C23.3539 262.267 23.3839 262.342 23.3839 262.402C23.4741 262.673 23.429 262.898 23.2938 263.033C23.3539 263.093 23.3839 263.168 23.3839 263.258C23.4741 263.484 23.429 263.709 23.2938 263.844C23.3539 263.934 23.3839 264.025 23.3839 264.115C23.4741 264.34 23.429 264.565 23.2938 264.701C23.3539 264.791 23.3839 264.866 23.3839 264.926C23.4741 265.196 23.429 265.377 23.2938 265.557C23.3539 265.617 23.3839 265.692 23.3839 265.782C23.5191 266.278 23.2487 266.638 22.7981 266.593L21.8066 266.458C21.356 266.413 20.9053 266.007 20.7701 265.512C20.7251 265.286 20.7251 265.061 20.8602 264.926C20.8302 264.836 20.8002 264.761 20.7701 264.701C20.7251 264.43 20.7251 264.205 20.8602 264.07C20.8302 264.01 20.8002 263.934 20.7701 263.844C20.7251 263.619 20.7251 263.394 20.8602 263.258C20.8302 263.168 20.8002 263.078 20.7701 262.988C20.7251 262.763 20.7251 262.537 20.8602 262.402C20.8302 262.342 20.8002 262.267 20.7701 262.177C20.7251 261.906 20.7251 261.726 20.8602 261.546C20.8302 261.486 20.8002 261.411 20.7701 261.321C20.68 260.87 20.8603 260.554 21.2658 260.509V250.46ZM21.2658 240.996V239.734C21.2658 239.283 21.6264 239.058 22.077 239.193C22.5277 239.374 22.9333 239.869 22.9333 240.365V241.582H22.8882C22.3474 241.356 21.8066 241.176 21.2658 240.996Z" fill="#654730"/>
<path d="M13.7858 242.088C11.9832 243.17 10.7664 245.063 10.3608 247.496C11.8931 246.415 14.6421 247.136 16.5349 248.983C17.1658 249.614 17.6615 250.29 18.022 250.966C18.7882 249.885 20.4556 249.705 22.078 250.29L22.123 250.335H22.1681L22.3033 250.381C22.2582 250.381 22.2582 250.381 22.3033 250.381C22.3333 250.381 22.3634 250.396 22.3934 250.426C23.2947 250.786 24.1059 251.372 24.827 252.048C25.3678 252.634 25.8635 253.31 26.1789 253.941C26.9451 252.859 28.6125 252.679 30.2349 253.265C31.5868 253.76 32.9388 254.752 33.7951 256.059C33.3895 253.265 32.1276 250.471 30.325 248.037C25.7283 241.908 18.3826 239.249 13.7858 242.088Z" fill="#654730"/>
<path d="M49.208 270.976V259.799L52.633 261.016L45.5126 249.569L38.3472 255.969L41.7722 257.185V268.362L49.208 270.976Z" fill="#654730"/>
<path d="M64.756 276.521V265.344L68.181 266.561L61.0156 255.069L53.8501 261.469L57.2751 262.685V273.862L64.756 276.521Z" fill="#654730"/>
<path d="M41.8223 271.374V273.267L64.6256 281.559V279.666L41.8223 271.374Z" fill="#654730"/>
<path d="M167.235 115.915L165.567 326.057C165.748 326.057 167.415 325.517 167.731 325.381L328.3 270.311C330.418 269.68 331.996 267.652 331.996 265.309V59.6282V57.6904C331.996 56.5637 331.635 55.5723 331.094 54.716C330.148 53.3641 328.571 52.5078 326.813 52.5078C326.092 52.5078 325.416 52.643 324.83 52.8683C235.78 81.6203 240.332 80.1332 167.595 103.612L167.325 103.522L167.235 115.915Z" fill="#D2A06D"/>
<path d="M233.074 119.105H233.119L234.966 115.5L238.526 117.347L240.419 113.787L244.025 115.68L245.872 112.075L249.477 113.922L251.37 110.317L254.976 112.21L256.823 108.605L260.428 110.452L262.321 106.847L265.927 108.74L267.774 105.135L271.379 106.982L273.272 103.377L271.74 69.3973L245.512 61.0602L111.396 18.3828L74.1714 30.5957L231.451 83.0072L233.074 119.105Z" fill="#654730"/>
<path d="M276.83 249.748L315.046 237.985V253.263L276.83 265.025V249.748Z" fill="#654730"/>
<path d="M276.83 228.203L315.046 216.44V231.718L276.83 243.435V228.203Z" fill="#654730"/>
<circle cx="163.882" cy="187.461" r="63.1967" fill="white"/>
<path d="M181.623 188.92L163.882 206.523L146.142 188.92M163.882 204.077L163.882 168.381" stroke="#26BD00" stroke-width="12.8536" stroke-linecap="round" stroke-linejoin="round"/>
<path d="M121.304 187.461C121.304 210.967 140.375 230.038 163.882 230.038C187.388 230.038 206.459 210.967 206.459 187.461C206.459 163.954 187.388 144.883 163.882 144.883C140.375 144.883 121.304 163.954 121.304 187.461Z" stroke="#26BD00" stroke-width="12.8536" stroke-miterlimit="10"/>
</svg>
