<svg width="316" height="311" viewBox="0 0 316 311" fill="none" xmlns="http://www.w3.org/2000/svg">
<path d="M149.867 95.9141H164.665V304.932L157.588 310.337L149.867 307.506V95.9141Z" fill="#C28F60"/>
<path d="M156.56 0.250182L3.68896 50.4352C4.075 50.3065 3.94633 51.8935 4.37526 51.8935C6.04809 51.8935 6.94884 51.7219 7.8496 53.0087L9.30797 53.7379L22.948 55.6252L159.262 98.5184L159.52 98.6041L303.04 53.0087L310.075 51.8935C310.675 51.6791 312.048 50.2636 312.777 50.2636L159.949 0.335967C158.876 -0.0500716 157.718 -0.135857 156.56 0.250182Z" fill="#AA7950"/>
<path d="M0 55.3284V252.851C0 255.082 1.45837 256.969 3.51724 257.57L156.346 310.028C156.574 310.114 156.803 310.185 157.032 310.242H157.118H157.16L157.203 310.285H157.246C157.361 310.285 157.475 310.299 157.589 310.328L159.262 98.5218C142.706 93.3317 8.83599 49.1089 3.68881 50.4386C3.08831 50.5672 2.57359 50.8246 2.05887 51.1677C1.45836 51.6396 0.94365 52.1972 0.600505 52.8835C0.457528 53.1408 0.343145 53.3982 0.257358 53.6555C0.171572 53.9129 0.100083 54.1703 0.0428925 54.4276C0.0142971 54.685 0 54.9423 0 55.1997V55.3284Z" fill="#C28F60"/>
<path d="M20.2406 238.404C20.7554 238.49 21.2701 238.704 21.8277 239.004V248.312C22.0422 248.484 22.2137 248.741 22.2566 248.999C22.3424 249.213 22.2995 249.427 22.1708 249.556C22.228 249.642 22.2566 249.713 22.2566 249.771C22.3424 250.028 22.2995 250.242 22.1708 250.371C22.228 250.428 22.2566 250.5 22.2566 250.586C22.3424 250.8 22.2995 251.015 22.1708 251.143C22.228 251.229 22.2566 251.315 22.2566 251.401C22.3424 251.615 22.2995 251.829 22.1708 251.958C22.228 252.044 22.2566 252.115 22.2566 252.173C22.3424 252.43 22.2995 252.602 22.1708 252.773C22.228 252.83 22.2566 252.902 22.2566 252.988C22.3853 253.459 22.1279 253.803 21.699 253.76L20.7554 253.631C20.3264 253.588 19.8975 253.202 19.7688 252.73C19.7259 252.516 19.7259 252.301 19.8546 252.173C19.826 252.087 19.7974 252.015 19.7688 251.958C19.7259 251.701 19.7259 251.486 19.8546 251.358C19.826 251.3 19.7974 251.229 19.7688 251.143C19.7259 250.929 19.7259 250.714 19.8546 250.586C19.826 250.5 19.7974 250.414 19.7688 250.328C19.7259 250.114 19.7259 249.899 19.8546 249.771C19.826 249.713 19.7974 249.642 19.7688 249.556C19.7259 249.299 19.7259 249.127 19.8546 248.956C19.826 248.898 19.7974 248.827 19.7688 248.741C19.683 248.312 19.8546 248.012 20.2406 247.969V238.404ZM20.2406 229.396V228.195C20.2406 227.766 20.5838 227.552 21.0127 227.681C21.4416 227.852 21.8277 228.324 21.8277 228.796V229.954H21.7848C21.2701 229.74 20.7554 229.568 20.2406 229.396Z" fill="#654730"/>
<path d="M13.1207 230.437C11.405 231.466 10.2469 233.268 9.86084 235.584C11.3192 234.555 13.9357 235.241 15.7372 237C16.3377 237.6 16.8095 238.243 17.1527 238.887C17.8819 237.857 19.4689 237.686 21.0131 238.243L21.056 238.286H21.0988L21.2275 238.329C21.1846 238.329 21.1846 238.329 21.2275 238.329C21.2561 238.329 21.2847 238.344 21.3133 238.372C22.1712 238.715 22.9433 239.273 23.6295 239.916C24.1443 240.474 24.6161 241.117 24.9163 241.718C25.6455 240.688 27.2326 240.517 28.7767 241.074C30.0635 241.546 31.3503 242.49 32.1653 243.734C31.7792 241.074 30.5782 238.415 28.8625 236.099C24.4874 230.265 17.4958 227.735 13.1207 230.437Z" fill="#654730"/>
<path d="M46.8353 257.911V247.274L50.0952 248.432L43.3181 237.537L36.498 243.628L39.7579 244.786V255.424L46.8353 257.911Z" fill="#654730"/>
<path d="M61.6341 263.189V252.551L64.8939 253.709L58.0739 242.771L51.2539 248.862L54.5138 250.02V260.658L61.6341 263.189Z" fill="#654730"/>
<path d="M39.8062 258.311V260.112L61.5101 268.004V266.203L39.8062 258.311Z" fill="#654730"/>
<path d="M159.182 110.327L157.595 310.338C157.767 310.338 159.354 309.823 159.654 309.695L312.482 257.279C314.498 256.679 316 254.748 316 252.518V56.7537V54.9093C316 53.837 315.656 52.8933 315.142 52.0783C314.241 50.7915 312.74 49.9766 311.067 49.9766C310.381 49.9766 309.737 50.1052 309.18 50.3197C224.423 77.6855 228.755 76.2701 159.525 98.6174L159.268 98.5316L159.182 110.327Z" fill="#D2A06D"/>
<path d="M221.847 113.343H221.89L223.648 109.911L227.037 111.67L228.838 108.281L232.27 110.083L234.028 106.651L237.46 108.41L239.261 104.979L242.693 106.78L244.451 103.349L247.883 105.107L249.684 101.676L253.116 103.477L254.874 100.046L258.306 101.804L260.107 98.373L258.649 66.0316L233.685 58.0964L106.035 17.4766L70.6055 29.1006L220.303 78.9853L221.847 113.343Z" fill="#654730"/>
<path d="M263.494 237.706L299.868 226.511V241.052L263.494 252.247V237.706Z" fill="#654730"/>
<path d="M263.494 217.2L299.868 206.005V220.546L263.494 231.698V217.2Z" fill="#654730"/>
<circle cx="155.991" cy="178.382" r="60.1499" fill="white"/>
<path d="M139.1 176.989L155.985 160.234L172.87 176.989M155.985 162.562V196.538" stroke="#CD0606" stroke-width="12.2339" stroke-linecap="round" stroke-linejoin="round"/>
<path d="M196.51 178.398C196.51 156.025 178.359 137.873 155.986 137.873C133.613 137.873 115.461 156.025 115.461 178.398C115.461 200.771 133.613 218.922 155.986 218.922C178.359 218.922 196.51 200.771 196.51 178.398Z" stroke="#CD0606" stroke-width="12.2339" stroke-miterlimit="10"/>
</svg>
