<svg width="316" height="310" viewBox="0 0 316 310" fill="none" xmlns="http://www.w3.org/2000/svg">
<path d="M150.014 95.7637H164.791V304.482L157.724 309.878L150.014 307.051V95.7637Z" fill="#C28F60"/>
<path d="M156.694 0.249822L4.04248 50.3627C4.42796 50.2342 4.29947 51.819 4.72779 51.819C6.39822 51.819 7.29767 51.6476 8.19714 52.9326L9.65341 53.6607L23.2738 55.5453L159.392 98.3768L159.649 98.4625L302.964 52.9326L309.988 51.819C310.588 51.6048 311.958 50.1914 312.686 50.1914L160.078 0.335484C159.007 -0.0499997 157.85 -0.135661 156.694 0.249822Z" fill="#AA7950"/>
<path d="M0.359863 55.2442V252.483C0.359863 254.71 1.81614 256.595 3.87205 257.195L156.481 309.578C156.709 309.663 156.938 309.735 157.166 309.792H157.252H157.294L157.337 309.835H157.38C157.494 309.835 157.609 309.849 157.723 309.877L159.393 98.3755C142.86 93.1929 9.18315 49.0336 4.04337 50.3614C3.44373 50.4899 2.92975 50.7469 2.41577 51.0895C1.81613 51.5606 1.30216 52.1175 0.959505 52.8028C0.816733 53.0598 0.702515 53.3167 0.616852 53.5737C0.531189 53.8307 0.459803 54.0877 0.402694 54.3447C0.37414 54.6017 0.359863 54.8587 0.359863 55.1157V55.2442Z" fill="#C28F60"/>
<path d="M20.5744 238.052C21.0884 238.137 21.6024 238.351 22.1592 238.651V247.946C22.3733 248.117 22.5447 248.374 22.5875 248.631C22.6731 248.845 22.6303 249.059 22.5018 249.188C22.5589 249.273 22.5875 249.345 22.5875 249.402C22.6731 249.659 22.6303 249.873 22.5018 250.002C22.5589 250.059 22.5875 250.13 22.5875 250.216C22.6731 250.43 22.6303 250.644 22.5018 250.773C22.5589 250.858 22.5875 250.944 22.5875 251.029C22.6731 251.244 22.6303 251.458 22.5018 251.586C22.5589 251.672 22.5875 251.743 22.5875 251.8C22.6731 252.057 22.6303 252.229 22.5018 252.4C22.5589 252.457 22.5875 252.529 22.5875 252.614C22.716 253.085 22.459 253.428 22.0307 253.385L21.0884 253.257C20.6601 253.214 20.2317 252.828 20.1033 252.357C20.0604 252.143 20.0604 251.929 20.1889 251.8C20.1604 251.715 20.1318 251.643 20.1033 251.586C20.0604 251.329 20.0604 251.115 20.1889 250.987C20.1604 250.93 20.1318 250.858 20.1033 250.773C20.0604 250.558 20.0604 250.344 20.1889 250.216C20.1604 250.13 20.1318 250.044 20.1033 249.959C20.0604 249.745 20.0604 249.53 20.1889 249.402C20.1604 249.345 20.1318 249.273 20.1033 249.188C20.0604 248.931 20.0604 248.759 20.1889 248.588C20.1604 248.531 20.1318 248.46 20.1033 248.374C20.0176 247.946 20.1889 247.646 20.5744 247.603V238.052ZM20.5744 229.057V227.858C20.5744 227.429 20.917 227.215 21.3454 227.344C21.7737 227.515 22.1592 227.986 22.1592 228.457V229.614H22.1163C21.6024 229.4 21.0884 229.228 20.5744 229.057Z" fill="#654730"/>
<path d="M13.4656 230.083C11.7524 231.111 10.5959 232.91 10.2104 235.223C11.6667 234.195 14.2794 234.88 16.0784 236.636C16.678 237.236 17.1492 237.878 17.4918 238.521C18.2199 237.493 19.8047 237.321 21.3466 237.878L21.3895 237.921H21.4323L21.5608 237.964C21.518 237.964 21.518 237.964 21.5608 237.964C21.5894 237.964 21.6179 237.978 21.6465 238.007C22.5031 238.349 23.2741 238.906 23.9594 239.549C24.4733 240.105 24.9445 240.748 25.2443 241.348C25.9724 240.32 27.5572 240.148 29.0991 240.705C30.3841 241.176 31.669 242.118 32.4828 243.361C32.0974 240.705 30.8981 238.049 29.1848 235.737C24.816 229.911 17.8345 227.384 13.4656 230.083Z" fill="#654730"/>
<path d="M47.1315 257.54V246.918L50.3867 248.075L43.6193 237.195L36.8091 243.277L40.0643 244.434V255.056L47.1315 257.54Z" fill="#654730"/>
<path d="M61.9072 262.809V252.186L65.1624 253.343L58.3522 242.421L51.542 248.503L54.7972 249.659V260.282L61.9072 262.809Z" fill="#654730"/>
<path d="M40.1074 257.927V259.726L61.7802 267.607V265.808L40.1074 257.927Z" fill="#654730"/>
<path d="M159.308 110.157L157.723 309.881C157.894 309.881 159.479 309.367 159.779 309.238L312.388 256.898C314.401 256.299 315.9 254.371 315.9 252.144V56.6609V54.8192C315.9 53.7484 315.557 52.8061 315.043 51.9923C314.144 50.7074 312.645 49.8936 310.974 49.8936C310.289 49.8936 309.647 50.0221 309.09 50.2362C224.455 77.5627 228.781 76.1493 159.651 98.4645L159.394 98.3788L159.308 110.157Z" fill="#D2A06D"/>
<path d="M221.884 113.199H221.927L223.683 109.773L227.066 111.529L228.865 108.145L232.292 109.944L234.048 106.517L237.474 108.273L239.273 104.847L242.7 106.646L244.456 103.219L247.882 104.975L249.681 101.549L253.108 103.348L254.864 99.9213L258.291 101.677L260.089 98.2509L258.633 65.956L233.705 58.0321L106.239 17.4707L70.8599 29.078L220.342 78.8911L221.884 113.199Z" fill="#654730"/>
<path d="M263.473 237.367L299.794 226.188V240.707L263.473 251.886V237.367Z" fill="#654730"/>
<path d="M263.473 216.89L299.794 205.711V220.231L263.473 231.367V216.89Z" fill="#654730"/>
</svg>
