<svg width="343" height="342" viewBox="0 0 343 342" fill="none" xmlns="http://www.w3.org/2000/svg">
<path d="M177.794 123.078H165.819V292.224L171.546 296.598L177.794 294.307V123.078Z" fill="#C28F60"/>
<path d="M172.378 45.6712L296.088 86.283C295.775 86.1789 295.88 87.4632 295.533 87.4632C294.179 87.4632 293.45 87.3243 292.721 88.3657L291.541 88.9557L280.503 90.483L170.191 125.194L169.983 125.263L53.8403 88.3657L48.1477 87.4632C47.6618 87.2896 46.551 86.1442 45.9609 86.1442L169.636 45.7406C170.504 45.4282 171.441 45.3588 172.378 45.6712Z" fill="#AA7950"/>
<path d="M299.074 90.2425V250.086C299.074 251.891 297.894 253.419 296.228 253.905L172.553 296.356C172.368 296.425 172.183 296.483 171.998 296.53H171.928H171.893L171.859 296.564H171.824C171.731 296.564 171.639 296.576 171.546 296.599L170.193 125.196C183.591 120.996 291.924 85.2095 296.089 86.2855C296.575 86.3896 296.992 86.5979 297.408 86.8756C297.894 87.2574 298.311 87.7086 298.588 88.264C298.704 88.4723 298.797 88.6805 298.866 88.8888C298.935 89.0971 298.993 89.3053 299.04 89.5136C299.063 89.7219 299.074 89.9301 299.074 90.1384V90.2425Z" fill="#C28F60"/>
<path d="M282.69 238.384C282.273 238.453 281.857 238.627 281.405 238.869V246.402C281.232 246.541 281.093 246.749 281.058 246.957C280.989 247.131 281.024 247.304 281.128 247.408C281.081 247.478 281.058 247.536 281.058 247.582C280.989 247.79 281.024 247.964 281.128 248.068C281.081 248.114 281.058 248.172 281.058 248.241C280.989 248.415 281.024 248.589 281.128 248.693C281.081 248.762 281.058 248.832 281.058 248.901C280.989 249.074 281.024 249.248 281.128 249.352C281.081 249.422 281.058 249.479 281.058 249.526C280.989 249.734 281.024 249.873 281.128 250.012C281.081 250.058 281.058 250.116 281.058 250.185C280.954 250.567 281.162 250.845 281.51 250.81L282.273 250.706C282.62 250.671 282.967 250.359 283.072 249.977C283.106 249.803 283.106 249.63 283.002 249.526C283.025 249.456 283.048 249.398 283.072 249.352C283.106 249.144 283.106 248.97 283.002 248.866C283.025 248.82 283.048 248.762 283.072 248.693C283.106 248.519 283.106 248.346 283.002 248.241C283.025 248.172 283.048 248.103 283.072 248.033C283.106 247.86 283.106 247.686 283.002 247.582C283.025 247.536 283.048 247.478 283.072 247.408C283.106 247.2 283.106 247.061 283.002 246.922C283.025 246.876 283.048 246.818 283.072 246.749C283.141 246.402 283.002 246.159 282.69 246.124V238.384ZM282.69 231.094V230.122C282.69 229.775 282.412 229.602 282.065 229.706C281.718 229.845 281.405 230.226 281.405 230.608V231.545H281.44C281.857 231.372 282.273 231.233 282.69 231.094Z" fill="#654730"/>
<path d="M288.453 231.923C289.842 232.756 290.779 234.214 291.091 236.088C289.911 235.255 287.794 235.81 286.336 237.234C285.85 237.72 285.468 238.24 285.19 238.761C284.6 237.928 283.316 237.789 282.066 238.24L282.032 238.275H281.997L281.893 238.31C281.928 238.31 281.928 238.31 281.893 238.31C281.87 238.31 281.847 238.321 281.823 238.344C281.129 238.622 280.504 239.073 279.949 239.594C279.533 240.045 279.151 240.566 278.908 241.052C278.318 240.219 277.033 240.08 275.784 240.531C274.742 240.913 273.701 241.677 273.042 242.683C273.354 240.531 274.326 238.379 275.714 236.505C279.255 231.784 284.913 229.736 288.453 231.923Z" fill="#654730"/>
<path d="M261.171 254.181V245.573L258.533 246.51L264.017 237.693L269.536 242.622L266.898 243.56V252.168L261.171 254.181Z" fill="#654730"/>
<path d="M249.194 258.444V249.836L246.556 250.773L252.075 241.922L257.594 246.851L254.956 247.788V256.396L249.194 258.444Z" fill="#654730"/>
<path d="M266.862 254.484V255.942L249.298 262.329V260.871L266.862 254.484Z" fill="#654730"/>
<path d="M170.261 134.737L171.545 296.594C171.406 296.594 170.122 296.177 169.879 296.073L46.2037 253.656C44.5723 253.17 43.3575 251.608 43.3575 249.803V91.3828V89.8902C43.3575 89.0224 43.6351 88.2588 44.0517 87.5993C44.7806 86.5579 45.9955 85.8984 47.3492 85.8984C47.9046 85.8984 48.4252 86.0026 48.8765 86.1761C117.465 108.322 113.959 107.176 169.983 125.261L170.191 125.191L170.261 134.737Z" fill="#D2A06D"/>
<path d="M119.549 137.208H119.514L118.091 134.431L115.349 135.854L113.891 133.112L111.114 134.57L109.691 131.793L106.914 133.216L105.456 130.439L102.679 131.897L101.256 129.12L98.4792 130.543L97.0213 127.766L94.2444 129.224L92.8213 126.447L90.0444 127.871L88.5866 125.094L89.7667 98.9217L109.968 92.5002L213.268 59.6289L241.939 69.0356L120.798 109.404L119.549 137.208Z" fill="#654730"/>
<path d="M85.8442 237.829L56.4094 228.77V240.537L85.8442 249.596V237.829Z" fill="#654730"/>
<path d="M85.8442 221.241L56.4094 212.182V223.949L85.8442 232.973V221.241Z" fill="#654730"/>
</svg>
