<svg width="1047" height="1133" viewBox="0 0 1047 1133" fill="none" xmlns="http://www.w3.org/2000/svg">
<path d="M1046.76 302.107V829.9L823.193 958.976V431.205L1046.76 302.107Z" fill="#AA6038"/>
<path d="M1046.76 302.144L823.193 431.243L599.6 302.144L823.193 173.069L1046.76 302.144Z" fill="#E8B280"/>
<path d="M823.177 431.246V959.016L746.957 1003.07V475.236L823.177 431.246Z" fill="#B5C8CF"/>
<path d="M823.177 173.094L599.583 302.17L523.364 258.134L746.935 129.058L823.177 173.094Z" fill="#D6DFE1"/>
<path d="M823.177 431.236L746.957 475.227L523.364 346.151L599.583 302.138L823.177 431.236Z" fill="#DEE8EA"/>
<path d="M674.74 1023.04V935.424L543.357 1011.3V1098.88L674.74 1023.04ZM746.957 475.233V1003.07L523.364 1132.15V604.309L746.957 475.233Z" fill="#AA6038"/>
<path d="M746.992 475.223L523.4 604.299L299.829 475.223L523.4 346.147L746.992 475.223Z" fill="#E8B280"/>
<path d="M746.948 129.053L523.377 258.129L299.829 129.053L523.377 3.05176e-05L746.948 129.053Z" fill="#E8B280"/>
<path d="M674.754 935.403V1023.02L543.371 1098.86V1011.28L674.754 935.403Z" fill="#C9915E"/>
<path d="M523.382 258.128L599.601 302.163L523.382 346.153L447.186 302.163L523.382 258.128Z" fill="#DEE8EA"/>
<path d="M523.4 604.309V1132.15L299.829 1003.07V475.233L523.4 604.309Z" fill="#E49C6A"/>
<path d="M523.383 258.134L447.186 302.17L223.593 173.094L299.835 129.058L523.383 258.134Z" fill="#DEE8EA"/>
<path d="M523.383 346.151L299.813 475.227L223.593 431.236L447.186 302.16L523.383 346.151Z" fill="#D6DFE1"/>
<path d="M447.186 302.167L223.593 431.243L0 302.167L223.593 173.091L447.186 302.167Z" fill="#E8B280"/>
<path d="M299.813 475.236V1003.07L223.593 959.039V431.246L299.813 475.236Z" fill="#D6DFE1"/>
<path d="M223.592 431.24V959.033L0 829.935V302.164L223.592 431.24Z" fill="#E49C6A"/>
<path d="M823.193 958.976V431.205L1046.76 302.107V583.712L901.719 606.149V913.651L823.193 958.976Z" fill="#7F483A"/>
<path d="M823.217 431.243L823.193 431.221L1046.79 302.145L823.217 431.243Z" fill="#A67470"/>
<path d="M746.957 1003.07V475.236L823.177 431.246V959.016L746.957 1003.07Z" fill="#8382A5"/>
<path d="M746.957 475.227L823.154 431.214L823.177 431.236L746.957 475.227Z" fill="#9C91B5"/>
<path d="M523.364 1132.15V604.309L746.957 475.233V1003.07L523.364 1132.15ZM543.357 1098.88L674.74 1023.04V935.424L543.357 1011.3V1098.88Z" fill="#7F483A"/>
<path d="M523.364 604.299L746.935 475.223H746.957L523.364 604.299Z" fill="#A67470"/>
<path d="M543.371 1098.86V1011.28L674.754 935.403V1023.02L543.371 1098.86Z" fill="#926358"/>
<path d="M411.905 995.943L395.326 960.253L411.905 995.943Z" fill="#9C91B5"/>
</svg>
