<svg width="342" height="342" viewBox="0 0 342 342" fill="none" xmlns="http://www.w3.org/2000/svg">
<path d="M176.437 142.973H163.281V257.948L169.573 260.92L176.437 259.363V142.973Z" fill="#C28F60"/>
<path d="M170.485 90.3583L306.396 117.964C306.053 117.893 306.167 118.766 305.786 118.766C304.299 118.766 303.498 118.671 302.697 119.379L301.4 119.78L289.274 120.819L168.083 144.413L167.854 144.46L40.257 119.379L34.003 118.766C33.4691 118.648 32.2488 117.869 31.6005 117.869L167.473 90.4055C168.426 90.1932 169.456 90.146 170.485 90.3583Z" fill="#AA7950"/>
<path d="M309.675 120.643V229.295C309.675 230.522 308.378 231.56 306.548 231.89L170.675 260.746C170.472 260.793 170.269 260.833 170.065 260.864H169.989H169.951L169.913 260.888H169.875C169.773 260.888 169.671 260.896 169.57 260.911L168.082 144.403C182.802 141.548 301.819 117.222 306.395 117.954C306.929 118.024 307.387 118.166 307.844 118.355C308.378 118.614 308.836 118.921 309.141 119.299C309.268 119.44 309.37 119.582 309.446 119.723C309.522 119.865 309.586 120.006 309.637 120.148C309.662 120.289 309.675 120.431 309.675 120.573V120.643Z" fill="#C28F60"/>
<path d="M168.16 150.894L169.571 260.915C169.419 260.915 168.008 260.631 167.741 260.561L31.8685 231.728C30.0762 231.398 28.7415 230.336 28.7415 229.109V121.425V120.411C28.7415 119.821 29.0465 119.302 29.5042 118.853C30.305 118.146 31.6397 117.697 33.1269 117.697C33.7371 117.697 34.3091 117.768 34.8048 117.886C110.158 132.939 106.307 132.161 167.855 144.453L168.084 144.406L168.16 150.894Z" fill="#D2A06D"/>
<path d="M291.816 212.049C291.358 212.125 290.901 212.316 290.405 212.583V220.858C290.214 221.011 290.062 221.239 290.024 221.468C289.947 221.659 289.986 221.849 290.1 221.964C290.049 222.04 290.024 222.104 290.024 222.155C289.947 222.383 289.986 222.574 290.1 222.688C290.049 222.739 290.024 222.803 290.024 222.879C289.947 223.07 289.986 223.26 290.1 223.375C290.049 223.451 290.024 223.527 290.024 223.604C289.947 223.794 289.986 223.985 290.1 224.099C290.049 224.176 290.024 224.239 290.024 224.29C289.947 224.519 289.986 224.671 290.1 224.824C290.049 224.875 290.024 224.938 290.024 225.015C289.909 225.434 290.138 225.739 290.519 225.701L291.358 225.587C291.74 225.548 292.121 225.205 292.235 224.786C292.274 224.595 292.274 224.404 292.159 224.29C292.185 224.214 292.21 224.15 292.235 224.099C292.274 223.871 292.274 223.68 292.159 223.566C292.185 223.515 292.21 223.451 292.235 223.375C292.274 223.184 292.274 222.994 292.159 222.879C292.185 222.803 292.21 222.727 292.235 222.65C292.274 222.46 292.274 222.269 292.159 222.155C292.185 222.104 292.21 222.04 292.235 221.964C292.274 221.735 292.274 221.583 292.159 221.43C292.185 221.379 292.21 221.316 292.235 221.239C292.312 220.858 292.159 220.591 291.816 220.553V212.049ZM291.816 204.041V202.973C291.816 202.592 291.511 202.401 291.13 202.515C290.748 202.668 290.405 203.087 290.405 203.507V204.537H290.443C290.901 204.346 291.358 204.193 291.816 204.041Z" fill="#654730"/>
<path d="M298.142 204.955C299.668 205.87 300.697 207.471 301.041 209.531C299.744 208.615 297.418 209.226 295.816 210.789C295.282 211.323 294.863 211.895 294.558 212.467C293.909 211.552 292.498 211.399 291.126 211.895L291.087 211.933H291.049L290.935 211.971C290.973 211.971 290.973 211.971 290.935 211.971C290.91 211.971 290.884 211.984 290.859 212.009C290.096 212.314 289.41 212.81 288.799 213.382C288.342 213.878 287.922 214.45 287.655 214.984C287.007 214.069 285.596 213.916 284.223 214.412C283.079 214.831 281.935 215.67 281.211 216.776C281.554 214.412 282.622 212.047 284.147 209.988C288.037 204.802 294.253 202.552 298.142 204.955Z" fill="#654730"/>
<path d="M270.081 220.596V211.139L267.183 212.169L273.208 202.482L279.389 208.437L276.102 209.399L276.262 219.261L270.081 220.596Z" fill="#654730"/>
<path d="M254.564 224.511V215.054L251.666 216.084L257.73 206.359L264.157 212.373L261.192 213.335L261.432 222.876L254.564 224.511Z" fill="#654730"/>
<path d="M273.938 222.156V223.758L254.679 228.788V227.186L273.938 222.156Z" fill="#654730"/>
<path d="M68.0903 216.639L35.9729 208.297V221.224L68.0903 229.567V216.639Z" fill="#654730"/>
<path d="M68.0903 196.604L36.4805 189.531V202.459L68.0903 209.494V196.604Z" fill="#654730"/>
<path d="M111.849 169.612H111.811L110.247 166.562L107.234 168.125L105.633 165.113L102.582 166.714L101.019 163.663L97.9678 165.227L96.3662 162.176L93.3154 163.778L91.7519 160.727L88.7012 162.291L87.0995 159.24L84.0488 160.842L82.4853 157.791L79.4346 159.354L77.8329 156.304L79.4757 126.817L119.91 118.325L209.476 98.2891L245.854 105.692L113.473 133.638L111.849 169.612Z" fill="#654730"/>
</svg>
