<svg width="24" height="24" viewBox="0 0 24 24" fill="none" xmlns="http://www.w3.org/2000/svg">
<path d="M20.7273 7.36364H17.4545V3H2.18182C0.981818 3 0 3.98182 0 5.18182V17.1818H2.18182C2.18182 18.9927 3.64364 20.4545 5.45455 20.4545C7.26545 20.4545 8.72727 18.9927 8.72727 17.1818H15.2727C15.2727 18.9927 16.7345 20.4545 18.5455 20.4545C20.3564 20.4545 21.8182 18.9927 21.8182 17.1818H24V11.7273L20.7273 7.36364ZM20.1818 9L22.32 11.7273H17.4545V9H20.1818ZM5.45455 18.2727C4.85455 18.2727 4.36364 17.7818 4.36364 17.1818C4.36364 16.5818 4.85455 16.0909 5.45455 16.0909C6.05455 16.0909 6.54545 16.5818 6.54545 17.1818C6.54545 17.7818 6.05455 18.2727 5.45455 18.2727ZM7.87636 15C7.27636 14.3345 6.42545 13.9091 5.45455 13.9091C4.48364 13.9091 3.63273 14.3345 3.03273 15H2.18182V5.18182H15.2727V15H7.87636ZM18.5455 18.2727C17.9455 18.2727 17.4545 17.7818 17.4545 17.1818C17.4545 16.5818 17.9455 16.0909 18.5455 16.0909C19.1455 16.0909 19.6364 16.5818 19.6364 17.1818C19.6364 17.7818 19.1455 18.2727 18.5455 18.2727Z" fill="#363636"/>
</svg>
